<?xml version="1.0" encoding="utf-8"?>
<!-- Generator: Adobe Illustrator 25.0.0, SVG Export Plug-In . SVG Version: 6.00 Build 0)  -->
<svg version="1.1" id="Layer_1" xmlns="http://www.w3.org/2000/svg" xmlns:xlink="http://www.w3.org/1999/xlink" x="0px" y="0px"
	 viewBox="0 0 1194.07 299.75" enable-background="new 0 0 1194.07 299.75" xml:space="preserve">
<g>
	<g>
		<linearGradient id="SVGID_1_" gradientUnits="userSpaceOnUse" x1="385.1725" y1="154.1625" x2="1054.9863" y2="237.6408">
			<stop  offset="0" style="stop-color:#FCAB87"/>
			<stop  offset="0.4919" style="stop-color:#FF3CBF"/>
			<stop  offset="0.5458" style="stop-color:#D962BC"/>
			<stop  offset="0.609" style="stop-color:#B587B9"/>
			<stop  offset="0.6753" style="stop-color:#96A5B6"/>
			<stop  offset="0.7446" style="stop-color:#7FBDB4"/>
			<stop  offset="0.8181" style="stop-color:#6ECEB3"/>
			<stop  offset="0.8987" style="stop-color:#64D8B2"/>
			<stop  offset="1" style="stop-color:#61DBB2"/>
		</linearGradient>
		<polygon fill="url(#SVGID_1_)" points="508.79,216.77 487.16,216.77 487.16,150.94 458.95,200.5 445.86,200.5 417.83,150.94 
			417.83,216.75 396.28,216.75 396.28,108.36 415.51,108.36 452.78,174.9 489.69,108.36 508.79,108.36 		"/>
		<linearGradient id="SVGID_2_" gradientUnits="userSpaceOnUse" x1="386.5439" y1="143.1585" x2="1056.3578" y2="226.6368">
			<stop  offset="0" style="stop-color:#FCAB87"/>
			<stop  offset="0.4919" style="stop-color:#FF3CBF"/>
			<stop  offset="0.5458" style="stop-color:#D962BC"/>
			<stop  offset="0.609" style="stop-color:#B587B9"/>
			<stop  offset="0.6753" style="stop-color:#96A5B6"/>
			<stop  offset="0.7446" style="stop-color:#7FBDB4"/>
			<stop  offset="0.8181" style="stop-color:#6ECEB3"/>
			<stop  offset="0.8987" style="stop-color:#64D8B2"/>
			<stop  offset="1" style="stop-color:#61DBB2"/>
		</linearGradient>
		<path fill="url(#SVGID_2_)" d="M619.95,141.26h22.69v10.8c2.43-3.46,11-11,18.89-12.07c4.33-0.59,8.63-0.39,12.82,0.94
			c5.56,1.76,9.67,5.27,12.38,10.42c0.43,0.82,0.81,1.66,1.25,2.55c0.54-0.87,1.03-1.71,1.57-2.51c3.52-5.19,8.43-8.51,14.35-10.32
			c6.57-2.01,13.2-1.95,19.7,0.31c5.88,2.05,9.77,6.25,12.13,11.93c1.6,3.86,2.38,7.92,2.67,12.06c0.19,2.84,0.25,5.69,0.26,8.54
			c0.02,13.98,0.01,42.85,0.01,42.85h-23.25l-0.01-44.8c0-2.79-0.22-5.56-1.18-8.22c-1.39-3.85-4.11-5.82-8.19-6.01
			c-2.46-0.11-4.85,0.12-7.11,1.18c-3.47,1.62-5.54,4.44-6.76,7.96c-0.91,2.61-1.23,5.32-1.23,8.08c0,0,0,41.48,0,41.82
			c-7.75,0-15.47,0-23.27,0c0-0.28-0.01-44.75-0.01-44.75c0-2.5-0.2-4.98-0.89-7.4c-1.12-3.92-3.58-6.34-7.72-6.8
			c-3.58-0.39-6.99,0.12-9.96,2.33c-2.69,2-4.19,4.79-5.06,7.96c-0.61,2.25-0.85,4.54-0.85,6.87c0,0,0,41.44,0,41.77h-23.21V141.26z
			"/>
		<linearGradient id="SVGID_3_" gradientUnits="userSpaceOnUse" x1="391.9892" y1="99.4664" x2="1061.8031" y2="182.9447">
			<stop  offset="0" style="stop-color:#FCAB87"/>
			<stop  offset="0.4919" style="stop-color:#FF3CBF"/>
			<stop  offset="0.5458" style="stop-color:#D962BC"/>
			<stop  offset="0.609" style="stop-color:#B587B9"/>
			<stop  offset="0.6753" style="stop-color:#96A5B6"/>
			<stop  offset="0.7446" style="stop-color:#7FBDB4"/>
			<stop  offset="0.8181" style="stop-color:#6ECEB3"/>
			<stop  offset="0.8987" style="stop-color:#64D8B2"/>
			<stop  offset="1" style="stop-color:#61DBB2"/>
		</linearGradient>
		<path fill="url(#SVGID_3_)" d="M1030.95,218.55c-5.47,0-14.06-1.44-18.77-3.48c-10.8-4.69-17.55-12.91-20.35-24.26
			c-2.13-8.63-2.09-17.33,0.64-25.83c3.97-12.33,12.35-20.22,24.86-23.65c6.04-1.65,12.2-1.94,18.42-1.39
			c5.35,0.48,10.47,1.79,15.27,4.23c6.25,3.17,11.08,7.8,14.55,13.9c3.07,5.4,4.6,11.21,4.99,17.36c0.38,5.93-0.06,11.79-1.88,17.48
			c-3.06,9.58-9.04,16.73-18.03,21.3C1043.32,217.88,1034.4,218.55,1030.95,218.55z M1013.84,178.98c0.03,3.5,0.34,6.99,1.32,10.4
			c2.02,6.99,7.61,11.47,14.66,11.73c6.75,0.25,12.68-3.4,15.34-9.68c1.35-3.18,1.88-6.53,2.05-9.94c0.21-4.15,0-8.27-1.13-12.3
			c-2.42-8.62-10.13-13.49-18.91-11.78c-5.88,1.14-9.67,4.84-11.7,10.39C1014.16,171.39,1013.87,175.16,1013.84,178.98z"/>
		<linearGradient id="SVGID_4_" gradientUnits="userSpaceOnUse" x1="384.8693" y1="156.5953" x2="1054.6831" y2="240.0736">
			<stop  offset="0" style="stop-color:#FCAB87"/>
			<stop  offset="0.4919" style="stop-color:#FF3CBF"/>
			<stop  offset="0.5458" style="stop-color:#D962BC"/>
			<stop  offset="0.609" style="stop-color:#B587B9"/>
			<stop  offset="0.6753" style="stop-color:#96A5B6"/>
			<stop  offset="0.7446" style="stop-color:#7FBDB4"/>
			<stop  offset="0.8181" style="stop-color:#6ECEB3"/>
			<stop  offset="0.8987" style="stop-color:#64D8B2"/>
			<stop  offset="1" style="stop-color:#61DBB2"/>
		</linearGradient>
		<path fill="url(#SVGID_4_)" d="M546.63,214.95c-10.52-4.66-17.16-12.72-19.98-23.8c-2.27-8.91-2.22-17.89,0.71-26.66
			c4.04-12.08,12.38-19.8,24.68-23.15c6.48-1.77,13.09-2.01,19.75-1.26c6.29,0.71,12.16,2.64,17.47,6.11
			c7.12,4.65,11.67,11.24,14.23,19.24c1.83,5.71,2.19,11.6,1.77,17.55c-0.34,4.74-1.32,9.33-3.26,13.68
			c-4.47,10.02-12.04,16.59-22.49,19.81c-3.66,1.15-8.34,2.07-12.8,2.07C559.35,218.55,552.9,217.48,546.63,214.95z M582,178.43
			c0.02-2.09-0.19-4.73-0.71-7.33c-0.85-4.21-2.67-7.88-6.07-10.6c-4.55-3.64-9.73-4.28-15.14-2.62c-5.4,1.66-8.69,5.59-10.2,10.93
			c-1.8,6.4-1.73,12.88-0.29,19.35c0.82,3.7,2.51,6.94,5.48,9.39c4.33,3.58,9.32,4.31,14.59,2.95c5.4-1.39,8.79-5.09,10.68-10.22
			C581.67,186.65,582,182.84,582,178.43z"/>
		<linearGradient id="SVGID_5_" gradientUnits="userSpaceOnUse" x1="389.5765" y1="118.8258" x2="1059.3903" y2="202.304">
			<stop  offset="0" style="stop-color:#FCAB87"/>
			<stop  offset="0.4919" style="stop-color:#FF3CBF"/>
			<stop  offset="0.5458" style="stop-color:#D962BC"/>
			<stop  offset="0.609" style="stop-color:#B587B9"/>
			<stop  offset="0.6753" style="stop-color:#96A5B6"/>
			<stop  offset="0.7446" style="stop-color:#7FBDB4"/>
			<stop  offset="0.8181" style="stop-color:#6ECEB3"/>
			<stop  offset="0.8987" style="stop-color:#64D8B2"/>
			<stop  offset="1" style="stop-color:#61DBB2"/>
		</linearGradient>
		<path fill="url(#SVGID_5_)" d="M864.25,216.76H841l-0.01-75.5h22.81v10.9c0.9-1.16,1.67-2.25,2.54-3.24
			c3.22-3.71,7.25-6.22,11.92-7.66c6.93-2.14,13.92-2.2,20.84-0.01c6.66,2.11,11.03,6.71,13.52,13.16c1.44,3.73,2.16,7.61,2.4,11.58
			c0.17,2.86,0.23,5.74,0.23,8.61c0.02,13.76,0.01,42.18,0.01,42.18H892c0,0,0.01-29.9-0.01-44.39c0-2.39-0.18-4.76-0.86-7.07
			c-1.26-4.33-4.08-6.9-8.59-7.46c-3.73-0.46-7.34,0.02-10.66,1.9c-4.16,2.36-6.41,6.06-7.24,10.67c-0.26,1.42-0.38,2.87-0.38,4.31
			C864.24,188.45,864.25,216.76,864.25,216.76z"/>
		<linearGradient id="SVGID_6_" gradientUnits="userSpaceOnUse" x1="388.3513" y1="128.6565" x2="1058.1652" y2="212.1348">
			<stop  offset="0" style="stop-color:#FCAB87"/>
			<stop  offset="0.4919" style="stop-color:#FF3CBF"/>
			<stop  offset="0.5458" style="stop-color:#D962BC"/>
			<stop  offset="0.609" style="stop-color:#B587B9"/>
			<stop  offset="0.6753" style="stop-color:#96A5B6"/>
			<stop  offset="0.7446" style="stop-color:#7FBDB4"/>
			<stop  offset="0.8181" style="stop-color:#6ECEB3"/>
			<stop  offset="0.8987" style="stop-color:#64D8B2"/>
			<stop  offset="1" style="stop-color:#61DBB2"/>
		</linearGradient>
		<path fill="url(#SVGID_6_)" d="M774.94,184c0.78,5.08,2.29,9.68,6.36,12.97c2.55,2.07,5.59,3.14,8.79,3.61
			c9.67,1.41,18.79-0.22,27.26-5.17c0.92-0.54,1.78-1.17,2.74-1.81c2.05,5.16,4.09,10.32,6.14,15.49c-2.14,1.63-4.42,2.97-6.81,4.11
			c-6.19,3.01-17.87,5.35-23.64,5.35c-6.09,0-13.37-0.87-19.12-3.14c-7.99-2.92-14.31-7.96-18.71-15.26
			c-2.36-3.91-3.76-8.19-4.49-12.69c-1.15-7.07-1.12-14.15,1.02-21.01c4.52-14.44,14.35-23.15,29.19-26.04
			c6.6-1.29,13.22-1,19.71,0.89c8.53,2.49,14.84,7.79,19.19,15.46c2.56,4.51,3.86,9.43,4.51,14.56c0.53,4.19,0.34,8.4,0.39,12.68
			H774.94z M774.97,171.97h33.25c-0.21-3.4-0.76-6.67-2.33-9.69c-1.53-2.95-3.82-5.05-6.96-6.17c-3.02-1.08-6.14-1.26-9.29-0.84
			c-5.95,0.8-10.16,3.97-12.67,9.41C775.91,166.97,775.29,169.39,774.97,171.97z"/>
		<linearGradient id="SVGID_7_" gradientUnits="userSpaceOnUse" x1="392.2278" y1="97.5524" x2="1062.0416" y2="181.0307">
			<stop  offset="0" style="stop-color:#FCAB87"/>
			<stop  offset="0.4919" style="stop-color:#FF3CBF"/>
			<stop  offset="0.5458" style="stop-color:#D962BC"/>
			<stop  offset="0.609" style="stop-color:#B587B9"/>
			<stop  offset="0.6753" style="stop-color:#96A5B6"/>
			<stop  offset="0.7446" style="stop-color:#7FBDB4"/>
			<stop  offset="0.8181" style="stop-color:#6ECEB3"/>
			<stop  offset="0.8987" style="stop-color:#64D8B2"/>
			<stop  offset="1" style="stop-color:#61DBB2"/>
		</linearGradient>
		<path fill="url(#SVGID_7_)" d="M923.57,158.62v-17.37h14.28v-22.13h23.23v22.14h22.39l-0.02,17.36h-22.31
			c0,0-0.04,18.6-0.04,27.53c0,2.12,0.14,4.22,0.77,6.27c1.26,4.14,4.22,6.18,8.33,6.88c3.6,0.62,7.09,0.07,10.56-0.86
			c0.66-0.18,1.33-0.36,2.06-0.56c0.27,1.32,0.54,2.59,0.79,3.87c0.83,4.14,2.59,12.92,2.59,12.92c-3.91,2.1-11.47,3.88-16.88,3.88
			c-7.04,0-19.43-2.7-26.1-10.83c-2.52-3.44-3.97-7.36-4.61-11.53c-0.42-2.76-0.69-5.57-0.72-8.36c-0.09-9.46-0.02-29.21-0.02-29.21
			H923.57z"/>
	</g>
	<g>
		<linearGradient id="SVGID_8_" gradientUnits="userSpaceOnUse" x1="245.4297" y1="161.1796" x2="279.225" y2="161.1796">
			<stop  offset="0" style="stop-color:#50ECB1"/>
			<stop  offset="0.1373" style="stop-color:#50E7B5"/>
			<stop  offset="0.2902" style="stop-color:#52DAC1"/>
			<stop  offset="0.4507" style="stop-color:#54C4D5"/>
			<stop  offset="0.6154" style="stop-color:#58A5F0"/>
			<stop  offset="0.6692" style="stop-color:#5999FB"/>
			<stop  offset="1" style="stop-color:#023D86"/>
		</linearGradient>
		<polygon fill="url(#SVGID_8_)" points="245.98,161.63 245.98,194.88 274.44,160.48 274.5,127.48 		"/>
		<linearGradient id="SVGID_9_" gradientUnits="userSpaceOnUse" x1="121.8682" y1="157.247" x2="227.003" y2="157.247">
			<stop  offset="0" style="stop-color:#FCAB87"/>
			<stop  offset="1" style="stop-color:#FF3CBF"/>
		</linearGradient>
		<polygon fill="url(#SVGID_9_)" points="123.38,97.74 123.38,216.75 161.73,216.75 161.73,150.61 227.88,216.75 227.88,182.82 
			156.74,97.74 		"/>
		<linearGradient id="SVGID_10_" gradientUnits="userSpaceOnUse" x1="122.8187" y1="89.4706" x2="177.9461" y2="89.4706">
			<stop  offset="0" style="stop-color:#FCAB87"/>
			<stop  offset="1" style="stop-color:#FF3CBF"/>
		</linearGradient>
		<polygon fill="url(#SVGID_10_)" points="123.38,97.74 149.46,81.2 179.37,81.2 156.74,97.74 		"/>
		<linearGradient id="SVGID_11_" gradientUnits="userSpaceOnUse" x1="230.6649" y1="123.6036" x2="160.3299" y2="145.4644">
			<stop  offset="0" style="stop-color:#FDA9F3"/>
			<stop  offset="0.9585" style="stop-color:#FF4082"/>
		</linearGradient>
		<polygon fill="url(#SVGID_11_)" points="179.37,81.2 245.98,161.63 227.88,182.82 156.74,97.74 		"/>
		<linearGradient id="SVGID_12_" gradientUnits="userSpaceOnUse" x1="177.9383" y1="149.63" x2="164.6316" y2="189.5498">
			<stop  offset="0" style="stop-color:#946450"/>
			<stop  offset="1" style="stop-color:#FF4082"/>
		</linearGradient>
		<polygon fill="url(#SVGID_12_)" points="161.73,216.75 185.55,174.43 161.73,150.61 		"/>
		<linearGradient id="SVGID_13_" gradientUnits="userSpaceOnUse" x1="320.5171" y1="199.8536" x2="359.0112" y2="199.8536">
			<stop  offset="0" style="stop-color:#50ECB1"/>
			<stop  offset="1" style="stop-color:#5999FB"/>
		</linearGradient>
		<rect x="320.79" y="182.95" fill="url(#SVGID_13_)" width="38.35" height="33.8"/>
		<linearGradient id="SVGID_14_" gradientUnits="userSpaceOnUse" x1="272.5182" y1="172.1183" x2="322.418" y2="172.1183">
			<stop  offset="0" style="stop-color:#50ECB1"/>
			<stop  offset="0.3296" style="stop-color:#5999FB"/>
			<stop  offset="1" style="stop-color:#023D86"/>
		</linearGradient>
		<polygon fill="url(#SVGID_14_)" points="320.79,216.75 274.44,160.48 274.5,127.48 320.79,182.95 		"/>
		<linearGradient id="SVGID_15_" gradientUnits="userSpaceOnUse" x1="333.64" y1="113.7313" x2="312.2544" y2="166.4825">
			<stop  offset="0" style="stop-color:#50ECB1"/>
			<stop  offset="0.9987" style="stop-color:#5999FB"/>
		</linearGradient>
		<polyline fill="url(#SVGID_15_)" points="290.72,108.23 359.14,182.95 320.79,182.95 274.5,127.48 		"/>
		<linearGradient id="SVGID_16_" gradientUnits="userSpaceOnUse" x1="278.2641" y1="103.0255" x2="226.9386" y2="164.331">
			<stop  offset="0.1591" style="stop-color:#50ECB1"/>
			<stop  offset="0.5554" style="stop-color:#5999FB"/>
			<stop  offset="0.9082" style="stop-color:#023D86"/>
		</linearGradient>
		<polyline fill="url(#SVGID_16_)" points="274.5,127.48 245.98,161.63 229.27,141.45 258.44,108.23 290.72,108.23 		"/>
		<linearGradient id="SVGID_17_" gradientUnits="userSpaceOnUse" x1="264.231" y1="167.6643" x2="202.9255" y2="158.1595">
			<stop  offset="0" style="stop-color:#AA44A2"/>
			<stop  offset="0.1595" style="stop-color:#A847A6"/>
			<stop  offset="0.329" style="stop-color:#A34FB3"/>
			<stop  offset="0.5031" style="stop-color:#9A5EC8"/>
			<stop  offset="0.6793" style="stop-color:#8E71E6"/>
			<stop  offset="0.8019" style="stop-color:#8482FF"/>
		</linearGradient>
		<polygon fill="url(#SVGID_17_)" points="229.27,141.45 210.84,162.44 227.88,182.82 245.98,161.63 		"/>
		<linearGradient id="SVGID_18_" gradientUnits="userSpaceOnUse" x1="274.4191" y1="126.2002" x2="293.9038" y2="126.2002">
			<stop  offset="0" style="stop-color:#44A378"/>
			<stop  offset="1" style="stop-color:#5999FB"/>
		</linearGradient>
		<polygon fill="url(#SVGID_18_)" points="290.72,141.41 290.72,108.23 274.5,127.48 288.42,144.17 		"/>
		<g>
			<linearGradient id="SVGID_19_" gradientUnits="userSpaceOnUse" x1="256.3601" y1="126.0418" x2="276.8008" y2="126.0418">
				<stop  offset="0" style="stop-color:#8B5092"/>
				<stop  offset="1" style="stop-color:#5999FB"/>
			</linearGradient>
			<polygon fill="url(#SVGID_19_)" points="274.5,127.48 258.44,108.23 258.44,140.94 260.83,143.85 			"/>
		</g>
		<linearGradient id="SVGID_20_" gradientUnits="userSpaceOnUse" x1="236.9263" y1="153.2761" x2="236.9263" y2="198.446">
			<stop  offset="0" style="stop-color:#F9C41A"/>
			<stop  offset="1" style="stop-color:#FA9DC1"/>
		</linearGradient>
		<polygon fill="url(#SVGID_20_)" points="245.98,161.63 245.98,194.88 227.88,216.75 227.88,182.82 		"/>
		<linearGradient id="SVGID_21_" gradientUnits="userSpaceOnUse" x1="270.6172" y1="143.9819" x2="289.1515" y2="143.9819">
			<stop  offset="0" style="stop-color:#48D7A1"/>
			<stop  offset="1" style="stop-color:#8482FF"/>
		</linearGradient>
		<polygon fill="url(#SVGID_21_)" points="274.44,160.48 288.42,144.17 274.5,127.48 		"/>
		<linearGradient id="SVGID_22_" gradientUnits="userSpaceOnUse" x1="257.3106" y1="143.9819" x2="283.4529" y2="143.9819">
			<stop  offset="0.1591" style="stop-color:#50ECB1"/>
			<stop  offset="0.9082" style="stop-color:#023D86"/>
		</linearGradient>
		<polyline fill="url(#SVGID_22_)" points="274.5,127.48 260.83,143.85 274.44,160.48 		"/>
	</g>
</g>
</svg>
